<?xml version="1.0" standalone="no"?>
<!DOCTYPE svg PUBLIC "-//W3C//DTD SVG 20010904//EN"
 "http://www.w3.org/TR/2001/REC-SVG-20010904/DTD/svg10.dtd">
<svg version="1.0" xmlns="http://www.w3.org/2000/svg"
 width="231.000000pt" height="231.000000pt" viewBox="0 0 231.000000 231.000000"
 preserveAspectRatio="xMidYMid meet">
<metadata>
Created by potrace 1.11, written by Peter Selinger 2001-2013
</metadata>
<g transform="translate(0.000000,231.000000) scale(0.100000,-0.100000)"
fill="#000000" stroke="none">
<path d="M577 1926 c-58 -21 -114 -62 -147 -108 -56 -77 -60 -107 -60 -485 l0
-343 459 0 c458 0 460 0 466 21 4 12 28 44 53 72 26 29 56 71 66 95 11 23 24
41 30 39 12 -4 12 -57 1 -119 -10 -55 7 -61 180 -52 130 6 145 5 151 -10 10
-26 -2 -31 -89 -35 -90 -3 -115 -14 -95 -39 10 -12 29 -13 99 -8 71 5 88 4 99
-9 10 -12 10 -18 0 -30 -9 -11 -35 -15 -101 -15 -73 0 -89 -3 -89 -15 0 -21
12 -24 105 -33 71 -6 80 -9 80 -27 0 -19 -7 -20 -94 -20 -71 0 -95 -3 -99 -14
-6 -18 13 -28 76 -42 53 -11 74 -31 54 -51 -8 -8 -58 -5 -179 12 -161 22 -253
47 -253 69 0 8 -144 11 -461 11 l-461 0 4 -107 c3 -82 9 -119 25 -155 31 -67
99 -131 167 -157 55 -20 70 -21 601 -21 532 0 546 0 602 21 76 29 143 96 172
172 20 55 21 74 21 412 l0 355 -459 0 c-375 0 -460 -2 -464 -13 -10 -28 -77
-46 -247 -71 -134 -19 -178 -22 -187 -13 -20 20 0 37 63 53 58 16 78 29 67 47
-3 5 -42 8 -87 7 -109 -3 -108 -3 -104 23 3 20 9 22 85 25 57 2 85 7 94 18 20
25 -1 33 -96 36 -82 3 -90 5 -90 23 0 19 8 20 103 23 93 2 102 4 102 22 0 20
-30 27 -135 33 -43 2 -50 5 -50 22 0 22 18 23 218 15 71 -3 91 -1 104 13 15
15 15 21 -2 77 -17 56 -17 62 -2 77 15 15 18 13 36 -29 11 -25 42 -71 69 -101
27 -30 51 -59 53 -66 3 -7 136 -11 464 -11 l460 -1 0 103 c-1 92 -4 109 -27
154 -34 64 -100 124 -164 147 -45 15 -99 17 -599 17 -436 -1 -558 -4 -588 -14z"/>
</g>
</svg>
