 <svg width="394" height="287" viewBox="0 0 394 287" fill="none" xmlns="http://www.w3.org/2000/svg">
      <path d="M289.772 0.164673H0.123993V185.481H289.772V0.164673Z" fill="#E6E6E6" />
      <path d="M281.49 23.4073H8.40611V174.517H281.49V23.4073Z" fill="white" />
      <path d="M289.648 0H0V12.2929H289.648V0Z" fill="#6C63FF" />
      <path d="M9.14431 8.56314C10.4039 8.56314 11.425 7.54307 11.425 6.28474C11.425 5.02642 10.4039 4.00635 9.14431 4.00635C7.88472 4.00635 6.86362 5.02642 6.86362 6.28474C6.86362 7.54307 7.88472 8.56314 9.14431 8.56314Z" fill="white" />
      <path d="M17.8013 8.56314C19.0609 8.56314 20.082 7.54307 20.082 6.28474C20.082 5.02642 19.0609 4.00635 17.8013 4.00635C16.5417 4.00635 15.5206 5.02642 15.5206 6.28474C15.5206 7.54307 16.5417 8.56314 17.8013 8.56314Z" fill="white" />
      <path d="M26.4582 8.56314C27.7178 8.56314 28.7389 7.54307 28.7389 6.28474C28.7389 5.02642 27.7178 4.00635 26.4582 4.00635C25.1986 4.00635 24.1775 5.02642 24.1775 6.28474C24.1775 7.54307 25.1986 8.56314 26.4582 8.56314Z" fill="white" />
      <path d="M95.417 35.8361H42.006V93.7239H95.417V35.8361Z" fill="#E6E6E6" />
      <path d="M171.653 35.8361H118.242V93.7239H171.653V35.8361Z" fill="#E6E6E6" />
      <path d="M247.888 35.8361H194.477V93.7239H247.888V35.8361Z" fill="#E6E6E6" />
      <path d="M95.417 104.202H42.006V162.09H95.417V104.202Z" fill="#E6E6E6" />
      <path d="M171.653 104.202H118.242V162.09H171.653V104.202Z" fill="#E6E6E6" />
      <path d="M247.888 104.202H194.477V162.09H247.888V104.202Z" fill="#E6E6E6" />
      <path d="M131.151 119.08L140.91 115.225L142.045 134.497C142.045 134.497 144.087 140.391 143.406 142.658C143.406 142.658 143.86 146.513 142.725 146.739C141.591 146.966 138.413 147.42 138.187 147.193C137.96 146.966 137.96 146.286 137.96 146.286C137.96 146.286 135.69 147.873 135.463 149.687C135.463 149.687 125.931 152.634 125.704 149.913C125.477 147.193 130.47 144.926 130.47 144.926L134.328 139.031L131.151 119.08Z" fill="white" />
      <path d="M151.803 119.08L161.562 115.225L162.697 134.497C162.697 134.497 164.739 140.391 164.059 142.658C164.059 142.658 164.513 146.513 163.378 146.739C162.243 146.966 159.066 147.42 158.839 147.193C158.612 146.966 158.612 146.286 158.612 146.286C158.612 146.286 156.342 147.873 156.115 149.687C156.115 149.687 146.584 152.634 146.357 149.913C146.13 147.193 151.123 144.926 151.123 144.926L154.981 139.031L151.803 119.08Z" fill="white" />
      <path d="M152.758 44.6607C152.758 44.6607 150.68 50.4609 153.088 53.0766L151.081 59.9669C151.081 59.9669 158.212 81.3399 156.175 84.3253C156.175 84.3253 148.568 88.1249 133.354 82.9683L139.534 59.017L138.651 48.9073L139.874 44.1578L142.591 43.8864C142.591 43.8864 140.961 49.9929 143.949 50.9428C146.938 51.8927 149.853 44.0388 149.853 44.0388L152.758 44.6607Z" fill="#3F3D56" />
      <path d="M56.796 82.1052L59.4182 83.1768L71.9334 66.7448L75.8668 86.0346L78.4891 85.5583C80.1712 68.9279 81.5428 51.9651 79.8598 43.9424L70.1456 43.5256L65.7354 57.5762L63.59 67.102L56.796 82.1052Z" fill="white" />
      <path d="M215.949 43.8091C215.949 43.8091 212.37 48.7793 212.545 50.7849C212.719 52.7904 214.989 85.4895 214.989 85.4895L220.313 85.7511L218.742 62.2078L220.051 55.8424L223.281 85.4895L229.827 85.6639L223.979 47.2098L222.844 43.8091L215.949 43.8091Z" fill="white" />
      <path d="M236.175 123.878C235.225 122.739 233.592 122.124 232.023 121.791C232.07 121.648 227.253 120.654 227.172 120.859L225.357 119.414L219.779 122.308L216.645 120.176L215.188 120.692C215.248 120.436 210.668 121.228 210.668 121.228C209.794 121.26 208.676 121.314 207.426 121.41C203.046 121.747 202.709 133.078 202.709 133.078C204.724 132.255 206.873 131.805 209.049 131.752L210.233 145.307C216.322 144.785 222.708 145.392 229.325 146.878L232.429 136.223L239.657 133.415C239.657 133.415 238.421 126.571 236.175 123.878Z" fill="#3F3D56" />
      <path d="M81.0648 117.425C80.2818 116.486 78.936 115.979 77.6435 115.705C77.6823 115.587 73.7129 114.768 73.6465 114.937L72.1505 113.747L67.5548 116.131L64.972 114.374L63.7723 114.8C63.8212 114.588 60.048 115.241 60.048 115.241C59.3272 115.267 58.4066 115.312 57.3761 115.391C53.7672 115.669 53.4897 125.005 53.4897 125.005C55.1501 124.326 56.9205 123.956 58.714 123.912L59.6894 151.251C64.7063 150.821 69.9679 151.321 75.4202 152.545L77.9775 127.596L83.9333 125.282C83.9333 125.282 82.9154 119.643 81.0648 117.425Z" fill="white" />
      <path d="M275.396 274.947L239.265 282.334L238.442 282.251L206.691 279.049V238.853L245.559 232.288L273.754 235.573L273.764 235.751V235.835L275.396 274.947Z" fill="#E6E6E6" />
      <path opacity="0.1" d="M275.396 274.947L239.265 282.335L238.442 282.251V241.043L273.764 235.751L275.396 274.947Z" fill="black" />
      <path opacity="0.05" d="M273.764 235.835L273.754 235.845L238.442 241.043L206.691 238.853L245.559 232.288L273.754 235.573L273.764 235.751V235.835Z" fill="black" />
      <path d="M233.029 254.314L211.062 252.881L210.389 263.182L232.356 264.614L233.029 254.314Z" fill="white" />
      <path d="M227.654 257.336L215.998 256.576L215.764 260.159L227.42 260.919L227.654 257.336Z" fill="#6C63FF" />
      <path d="M324.365 274.947L288.235 282.334L287.411 282.251L255.66 279.049V238.853L294.528 232.288L322.723 235.573L322.734 235.751V235.835L324.365 274.947Z" fill="#6C63FF" />
      <path opacity="0.1" d="M324.365 274.947L288.235 282.335L287.411 282.251V241.043L322.734 235.751L324.365 274.947Z" fill="black" />
      <path opacity="0.05" d="M322.734 235.835L322.723 235.845L287.411 241.043L255.66 238.853L294.528 232.288L322.723 235.573L322.734 235.751V235.835Z" fill="black" />
      <path d="M281.998 254.314L260.031 252.881L259.359 263.182L281.325 264.614L281.998 254.314Z" fill="white" />
      <path d="M276.623 257.336L264.968 256.576L264.733 260.159L276.389 260.919L276.623 257.336Z" fill="#6C63FF" />
      <path d="M350.509 74.3318C350.509 74.3318 356.884 90.7834 345.197 90.7834C333.51 90.7834 363.259 107.235 374.946 97.6825C386.633 88.1299 379.727 87.5992 379.727 87.5992C379.727 87.5992 364.321 89.1913 364.853 75.3932L350.509 74.3318Z" fill="#FFB8B8" />
      <path d="M358.814 79.2837C369.19 79.2837 377.602 70.8806 377.602 60.5149C377.602 50.1491 369.19 41.746 358.814 41.746C348.438 41.746 340.026 50.1491 340.026 60.5149C340.026 70.8806 348.438 79.2837 358.814 79.2837Z" fill="#2F2E41" />
      <path d="M347.322 142.792L327.135 194.8C327.135 194.8 317.042 210.721 320.76 226.642C324.479 242.563 334.698 271.539 334.698 271.539C334.698 271.539 342.417 273.501 341.886 266.602C341.355 259.703 342.217 226.255 334.249 217.233L366.446 180.471L367.509 222.396C367.509 222.396 365.384 241.501 365.915 249.993C366.446 258.484 367.509 272.813 367.509 272.813L373.884 271.751C373.884 271.751 382.483 232.663 381.421 219.926C381.421 219.926 401.158 158.04 380.972 143.18L347.322 142.792Z" fill="#2F2E41" />
      <path d="M336.917 271.452C336.917 271.452 334.318 270.791 334.018 273.173C333.719 275.554 328.252 286.145 333.96 286.675C339.667 287.205 341.642 281.87 342.598 278.12C343.554 274.369 343.916 274.154 344.714 273.436C345.513 272.717 347.413 268.78 345.029 268.481C342.645 268.182 341.423 265.84 341.423 265.84C341.423 265.84 340.671 272.407 336.917 271.452Z" fill="#2F2E41" />
      <path d="M371.67 269.611C371.67 269.611 366.85 268.923 367.194 270.643C367.539 272.362 366.506 279.586 367.194 280.274C367.883 280.962 369.26 282.337 369.26 283.369C369.26 284.401 369.604 287.841 375.458 286.809C381.311 285.777 379.934 280.618 379.59 279.93C379.245 279.242 375.114 275.802 375.458 273.738C375.802 271.674 373.736 268.235 371.67 269.611Z" fill="#2F2E41" />
      <path d="M359.046 81.3426C366.233 81.3426 372.059 75.5222 372.059 68.3424C372.059 61.1626 366.233 55.3423 359.046 55.3423C351.859 55.3423 346.032 61.1626 346.032 68.3424C346.032 75.5222 351.859 81.3426 359.046 81.3426Z" fill="#FFB8B8" />
      <path d="M371.493 86.2725C371.493 86.2725 376.032 95.2437 362.351 95.498C358.145 95.5762 353.143 92.5142 351.078 88.853C349.862 86.696 349.555 89.675 347.588 89.4567C343.863 89.0432 339.883 90.587 336.322 92.4787C335.862 92.7225 335.501 93.1184 335.301 93.5986C335.101 94.0788 335.074 94.6135 335.225 95.1113C337.925 104.062 345.637 147.119 346.828 149.464C349.868 155.45 382.769 145.424 382.769 145.424C383.219 129.135 377.301 106.346 387.71 89.7724C385.421 88.0535 382.785 86.8506 379.986 86.2464C377.186 85.6423 374.289 85.6512 371.493 86.2725Z" fill="#575A89" />
      <path d="M371.215 58.3457L361.68 53.3568L348.514 55.3975L345.79 67.417L352.571 67.1563L354.465 62.7405V67.0835L357.594 66.9633L359.41 59.9332L360.545 67.417L371.668 67.1899L371.215 58.3457Z" fill="#2F2E41" />
      <path d="M359.803 46.6851C363.989 46.6851 367.384 43.2944 367.384 39.1117C367.384 34.9291 363.989 31.5383 359.803 31.5383C355.616 31.5383 352.222 34.9291 352.222 39.1117C352.222 43.2944 355.616 46.6851 359.803 46.6851Z" fill="#2F2E41" />
      <path d="M350.244 36.8068C350.244 34.9979 350.892 33.2487 352.071 31.8756C353.25 30.5025 354.882 29.5962 356.671 29.3205C355.591 29.1555 354.488 29.2255 353.438 29.5259C352.388 29.8262 351.415 30.3498 350.586 31.0608C349.757 31.7718 349.092 32.6534 348.636 33.6451C348.18 34.6369 347.943 35.7154 347.943 36.8068C347.943 37.8982 348.18 38.9767 348.636 39.9685C349.092 40.9603 349.757 41.8418 350.586 42.5528C351.415 43.2638 352.388 43.7874 353.438 44.0878C354.488 44.3881 355.591 44.4582 356.671 44.2931C354.882 44.0174 353.25 43.1111 352.071 41.738C350.892 40.365 350.244 38.6158 350.244 36.8068Z" fill="#2F2E41" />
      <path d="M394 217.051L357.87 224.438L357.046 224.355L325.295 221.153V180.957L364.163 174.392L392.358 177.677L392.369 177.855V177.939L394 217.051Z" fill="#E6E6E6" />
      <path opacity="0.1" d="M394 217.051L357.87 224.439L357.046 224.355V183.147L392.369 177.855L394 217.051Z" fill="black" />
      <path opacity="0.05" d="M392.369 177.939L392.358 177.949L357.046 183.147L325.295 180.957L364.163 174.392L392.358 177.677L392.369 177.855V177.939Z" fill="black" />
      <path d="M351.634 196.418L329.667 194.985L328.994 205.286L350.961 206.718L351.634 196.418Z" fill="white" />
      <path d="M346.259 199.44L334.603 198.68L334.369 202.263L346.025 203.023L346.259 199.44Z" fill="#6C63FF" />
      <path d="M337.717 170.634C337.717 170.634 324.436 181.247 330.28 184.962C336.124 188.677 343.03 170.634 343.03 170.634H337.717Z" fill="#FFB8B8" />
      <path d="M338.292 92.0164C337.604 91.2419 328.917 95.6677 330.205 101.441L330.811 141.445C330.811 141.445 327.624 174.349 335.592 174.349C343.561 174.349 342.62 175.455 343.683 172.802C344.745 170.148 345.031 147.668 345.031 147.668L338.292 92.0164Z" fill="#575A89" />
      <path d="M379.379 167.043C379.379 167.043 386.285 185.087 392.128 181.372C397.972 177.657 384.691 167.043 384.691 167.043H379.379Z" fill="#FFB8B8" />
      <path d="M380.971 144.527C380.971 144.527 377.663 166.557 378.725 169.211C379.788 171.864 378.847 170.758 386.816 170.758C394.784 170.758 391.597 137.855 391.597 137.855L392.203 97.8508C393.491 92.0772 384.804 87.6513 384.116 88.4258L376.479 114.457L380.971 144.527Z" fill="#575A89" />
    </svg>